<svg width="74" height="23" viewBox="0 0 74 23" fill="none" xmlns="http://www.w3.org/2000/svg">
<g filter="url(#filter0_b_2620_399)">
<rect y="0.184204" width="74" height="22" rx="11" fill="#F3F4F6" fill-opacity="0.5"/>
<path d="M10.772 15.1842V8.0202H8.324V6.7842H14.768V8.0202H12.308V15.1842H10.772ZM18.3418 15.1842L15.2698 6.7842H16.9138L19.2898 13.6122L21.6778 6.7842H23.2978L20.2258 15.1842H18.3418ZM30.0238 15.3282C29.4078 15.3282 28.8638 15.2242 28.3918 15.0162C27.9198 14.8002 27.5478 14.4962 27.2758 14.1042C27.0038 13.7042 26.8638 13.2202 26.8558 12.6522H28.4758C28.4918 13.0442 28.6318 13.3762 28.8958 13.6482C29.1678 13.9122 29.5398 14.0442 30.0118 14.0442C30.4198 14.0442 30.7438 13.9482 30.9838 13.7562C31.2238 13.5562 31.3438 13.2922 31.3438 12.9642C31.3438 12.6202 31.2358 12.3522 31.0198 12.1602C30.8118 11.9682 30.5318 11.8122 30.1798 11.6922C29.8278 11.5722 29.4518 11.4442 29.0518 11.3082C28.4038 11.0842 27.9078 10.7962 27.5638 10.4442C27.2278 10.0922 27.0598 9.6242 27.0598 9.0402C27.0518 8.5442 27.1678 8.1202 27.4078 7.7682C27.6558 7.4082 27.9918 7.1322 28.4158 6.9402C28.8398 6.7402 29.3278 6.6402 29.8798 6.6402C30.4398 6.6402 30.9318 6.7402 31.3558 6.9402C31.7878 7.1402 32.1238 7.4202 32.3638 7.7802C32.6118 8.1402 32.7438 8.5682 32.7598 9.0642H31.1158C31.1078 8.7682 30.9918 8.5082 30.7678 8.2842C30.5518 8.0522 30.2478 7.9362 29.8558 7.9362C29.5198 7.9282 29.2358 8.0122 29.0038 8.1882C28.7798 8.3562 28.6678 8.6042 28.6678 8.9322C28.6678 9.2122 28.7558 9.4362 28.9318 9.6042C29.1078 9.7642 29.3478 9.9002 29.6518 10.0122C29.9558 10.1242 30.3038 10.2442 30.6958 10.3722C31.1118 10.5162 31.4918 10.6842 31.8358 10.8762C32.1798 11.0682 32.4558 11.3242 32.6638 11.6442C32.8718 11.9562 32.9758 12.3602 32.9758 12.8562C32.9758 13.2962 32.8638 13.7042 32.6398 14.0802C32.4158 14.4562 32.0838 14.7602 31.6438 14.9922C31.2038 15.2162 30.6638 15.3282 30.0238 15.3282ZM34.316 15.1842V6.7842H39.8V8.0202H35.852V10.3242H39.44V11.5242H35.852V13.9482H39.8V15.1842H34.316ZM41.2535 15.1842V6.7842H44.3375C45.0095 6.7842 45.5615 6.9002 45.9935 7.1322C46.4335 7.3562 46.7615 7.6642 46.9775 8.0562C47.1935 8.4402 47.3015 8.8682 47.3015 9.3402C47.3015 9.8522 47.1655 10.3202 46.8935 10.7442C46.6295 11.1682 46.2135 11.4762 45.6455 11.6682L47.3855 15.1842H45.6215L44.0615 11.8722H42.7895V15.1842H41.2535ZM42.7895 10.7442H44.2415C44.7535 10.7442 45.1295 10.6202 45.3695 10.3722C45.6095 10.1242 45.7295 9.7962 45.7295 9.3882C45.7295 8.9882 45.6095 8.6682 45.3695 8.4282C45.1375 8.1882 44.7575 8.0682 44.2295 8.0682H42.7895V10.7442ZM48.7301 15.1842V6.7842H50.2661V15.1842H48.7301ZM51.8941 15.1842V6.7842H57.3781V8.0202H53.4301V10.3242H57.0181V11.5242H53.4301V13.9482H57.3781V15.1842H51.8941ZM61.6996 15.3282C61.0836 15.3282 60.5396 15.2242 60.0676 15.0162C59.5956 14.8002 59.2236 14.4962 58.9516 14.1042C58.6796 13.7042 58.5396 13.2202 58.5316 12.6522H60.1516C60.1676 13.0442 60.3076 13.3762 60.5716 13.6482C60.8436 13.9122 61.2156 14.0442 61.6876 14.0442C62.0956 14.0442 62.4196 13.9482 62.6596 13.7562C62.8996 13.5562 63.0196 13.2922 63.0196 12.9642C63.0196 12.6202 62.9116 12.3522 62.6956 12.1602C62.4876 11.9682 62.2076 11.8122 61.8556 11.6922C61.5036 11.5722 61.1276 11.4442 60.7276 11.3082C60.0796 11.0842 59.5836 10.7962 59.2396 10.4442C58.9036 10.0922 58.7356 9.6242 58.7356 9.0402C58.7276 8.5442 58.8436 8.1202 59.0836 7.7682C59.3316 7.4082 59.6676 7.1322 60.0916 6.9402C60.5156 6.7402 61.0036 6.6402 61.5556 6.6402C62.1156 6.6402 62.6076 6.7402 63.0316 6.9402C63.4636 7.1402 63.7996 7.4202 64.0396 7.7802C64.2876 8.1402 64.4196 8.5682 64.4356 9.0642H62.7916C62.7836 8.7682 62.6676 8.5082 62.4436 8.2842C62.2276 8.0522 61.9236 7.9362 61.5316 7.9362C61.1956 7.9282 60.9116 8.0122 60.6796 8.1882C60.4556 8.3562 60.3436 8.6042 60.3436 8.9322C60.3436 9.2122 60.4316 9.4362 60.6076 9.6042C60.7836 9.7642 61.0236 9.9002 61.3276 10.0122C61.6316 10.1242 61.9796 10.2442 62.3716 10.3722C62.7876 10.5162 63.1676 10.6842 63.5116 10.8762C63.8556 11.0682 64.1316 11.3242 64.3396 11.6442C64.5476 11.9562 64.6516 12.3602 64.6516 12.8562C64.6516 13.2962 64.5396 13.7042 64.3156 14.0802C64.0916 14.4562 63.7596 14.7602 63.3196 14.9922C62.8796 15.2162 62.3396 15.3282 61.6996 15.3282Z" fill="#111827"/>
</g>
<defs>
<filter id="filter0_b_2620_399" x="-2" y="-1.8158" width="78" height="26" filterUnits="userSpaceOnUse" color-interpolation-filters="sRGB">
<feFlood flood-opacity="0" result="BackgroundImageFix"/>
<feGaussianBlur in="BackgroundImageFix" stdDeviation="1"/>
<feComposite in2="SourceAlpha" operator="in" result="effect1_backgroundBlur_2620_399"/>
<feBlend mode="normal" in="SourceGraphic" in2="effect1_backgroundBlur_2620_399" result="shape"/>
</filter>
</defs>
</svg>
